<svg width="48" height="48" viewBox="0 0 48 48" fill="none" xmlns="http://www.w3.org/2000/svg">
<path fill-rule="evenodd" clip-rule="evenodd" d="M37 18.0433C37 10.8311 31.1717 5 24 5C16.8283 5 11 10.8311 11 18.0433C11 26.4795 20.6787 38.3919 23.3335 41.5008C23.6895 41.9177 24.3105 41.9177 24.6665 41.5008C27.3213 38.3919 37 26.4795 37 18.0433ZM24 23.2C26.8719 23.2 29.2 20.8719 29.2 18C29.2 15.1281 26.8719 12.8 24 12.8C21.1281 12.8 18.8 15.1281 18.8 18C18.8 20.8719 21.1281 23.2 24 23.2Z" fill="white"/>
</svg>
