<svg width="48" height="48" viewBox="0 0 48 48" fill="none" xmlns="http://www.w3.org/2000/svg">
<mask id="path-1-inside-1_7_1007" fill="white">
<path d="M24 5C31.1717 5 37 10.8311 37 18.0433C37 26.4795 27.3213 38.3919 24.6665 41.5008C24.3105 41.9177 23.6895 41.9177 23.3335 41.5008C20.6787 38.3919 11 26.4795 11 18.0433C11 10.8311 16.8283 5 24 5Z"/>
</mask>
<path d="M24 5C31.1717 5 37 10.8311 37 18.0433C37 26.4795 27.3213 38.3919 24.6665 41.5008C24.3105 41.9177 23.6895 41.9177 23.3335 41.5008C20.6787 38.3919 11 26.4795 11 18.0433C11 10.8311 16.8283 5 24 5Z" fill="#222225"/>
<path d="M24.6665 41.5008L23.906 40.8514L24.6665 41.5008ZM23.3335 41.5008L22.573 42.1502L23.3335 41.5008ZM24 6C30.6171 6 36 11.3811 36 18.0433H38C38 10.2812 31.7263 4 24 4V6ZM36 18.0433C36 21.9559 33.7237 26.8324 30.9798 31.2414C28.2659 35.6022 25.2184 39.3146 23.906 40.8514L25.427 42.1502C26.7694 40.5781 29.8887 36.7798 32.6778 32.2982C35.437 27.8647 38 22.5669 38 18.0433H36ZM23.906 40.8514C23.9207 40.8343 23.9557 40.8134 24 40.8134C24.0443 40.8134 24.0793 40.8343 24.094 40.8514L22.573 42.1502C23.3282 43.0345 24.6718 43.0345 25.427 42.1502L23.906 40.8514ZM24.094 40.8514C22.7816 39.3146 19.7341 35.6022 17.0202 31.2414C14.2763 26.8324 12 21.9559 12 18.0433H10C10 22.5669 12.563 27.8647 15.3222 32.2982C18.1113 36.7798 21.2306 40.5781 22.573 42.1502L24.094 40.8514ZM12 18.0433C12 11.3811 17.3829 6 24 6V4C16.2737 4 10 10.2812 10 18.0433H12Z" fill="#85868C" mask="url(#path-1-inside-1_7_1007)"/>
</svg>
