<svg width="45" height="42" viewBox="0 0 45 42" fill="none" xmlns="http://www.w3.org/2000/svg">
<path fill-rule="evenodd" clip-rule="evenodd" d="M45 0H0V42H45V0ZM23 30.2632C28.1159 30.2632 32.2632 26.1159 32.2632 21C32.2632 15.8841 28.1159 11.7368 23 11.7368C17.8841 11.7368 13.7368 15.8841 13.7368 21C13.7368 26.1159 17.8841 30.2632 23 30.2632ZM21.3158 6C21.3158 5.44772 21.7635 5 22.3158 5H23.6842C24.2365 5 24.6842 5.44772 24.6842 6V10.0526H21.3158V6ZM7 21.6842C7 22.2365 7.44772 22.6842 8 22.6842H12.0526V19.3158H8C7.44772 19.3158 7 19.7635 7 20.3158V21.6842ZM24.6842 31.9474V36C24.6842 36.5523 24.2365 37 23.6842 37H22.3158C21.7635 37 21.3158 36.5523 21.3158 36V31.9474H24.6842ZM38 19.3158H33.9474V22.6842H38C38.5523 22.6842 39 22.2365 39 21.6842V20.3158C39 19.7635 38.5523 19.3158 38 19.3158ZM13.4574 32.9843C13.0668 33.3748 12.4337 33.3748 12.0431 32.9843L11.0755 32.0167C10.685 31.6262 10.685 30.993 11.0755 30.6025L13.9412 27.7368L16.323 30.1187L13.4574 32.9843ZM29.7368 11.9412L32.1187 14.323L34.9843 11.4573C35.3748 11.0668 35.3748 10.4337 34.9843 10.0431L34.0167 9.07551C33.6262 8.68499 32.993 8.68499 32.6025 9.07551L29.7368 11.9412ZM11.0755 11.4574C10.685 11.0668 10.685 10.4337 11.0755 10.0431L12.0431 9.07553C12.4337 8.68501 13.0668 8.68501 13.4574 9.07553L16.323 11.9412L13.9412 14.323L11.0755 11.4574ZM32.1187 27.7368L29.7368 30.1187L32.6025 32.9843C32.993 33.3748 33.6262 33.3748 34.0167 32.9843L34.9843 32.0167C35.3748 31.6262 35.3748 30.993 34.9843 30.6025L32.1187 27.7368Z" fill="white"/>
</svg>
