<svg width="38" height="38" viewBox="0 0 38 38" fill="none" xmlns="http://www.w3.org/2000/svg">
    <circle cx="19" cy="19" r="11" fill="white"/>
    <path d="M17 1C17 0.447715 17.4477 0 18 0H20C20.5523 0 21 0.447715 21 1V6H17V1Z" fill="white"/>
    <path d="M1 21C0.447715 21 0 20.5523 0 20L0 18C0 17.4477 0.447715 17 1 17H6L6 21H1Z" fill="white"/>
    <path d="M17 32H21V37C21 37.5523 20.5523 38 20 38H18C17.4477 38 17 37.5523 17 37V32Z" fill="white"/>
    <path d="M32 21V17H37C37.5523 17 38 17.4477 38 18V20C38 20.5523 37.5523 21 37 21H32Z" fill="white"/>
    <path d="M7.53554 33.364C7.14501 33.7545 6.51185 33.7545 6.12132 33.364L4.70711 31.9498C4.31659 31.5592 4.31659 30.9261 4.70711 30.5355L8.24264 27L11.0711 29.8284L7.53554 33.364Z" fill="white"/>
    <path d="M29.8284 11.0711L27 8.24265L30.5355 4.70711C30.9261 4.31659 31.5592 4.31659 31.9498 4.70711L33.364 6.12133C33.7545 6.51185 33.7545 7.14502 33.364 7.53554L29.8284 11.0711Z" fill="white"/>
    <path d="M4.70711 7.53554C4.31658 7.14501 4.31658 6.51185 4.70711 6.12132L6.12132 4.70711C6.51184 4.31659 7.14501 4.31659 7.53553 4.70711L11.0711 8.24264L8.24264 11.0711L4.70711 7.53554Z" fill="white"/>
    <path d="M27 29.8284L29.8284 27L33.364 30.5355C33.7545 30.9261 33.7545 31.5592 33.364 31.9498L31.9497 33.364C31.5592 33.7545 30.9261 33.7545 30.5355 33.364L27 29.8284Z" fill="white"/>
</svg>